<svg width="18" height="18" viewBox="0 0 18 18" fill="none" xmlns="http://www.w3.org/2000/svg">
<path fill-rule="evenodd" clip-rule="evenodd" d="M0.666504 2.33335C0.666504 1.41288 1.4127 0.666687 2.33317 0.666687H6.49984C7.42031 0.666687 8.16651 1.41288 8.16651 2.33335V6.50002C8.16651 7.4205 7.42031 8.16669 6.49984 8.16669H2.33317C1.4127 8.16669 0.666504 7.4205 0.666504 6.50002V2.33335ZM6.49984 2.33335H2.33317V6.50002H6.49984V2.33335ZM9.83317 2.33335C9.83317 1.41288 10.5794 0.666687 11.4998 0.666687H15.6665C16.587 0.666687 17.3332 1.41288 17.3332 2.33335V6.50002C17.3332 7.4205 16.587 8.16669 15.6665 8.16669H11.4998C10.5794 8.16669 9.83317 7.4205 9.83317 6.50002V2.33335ZM15.6665 2.33335H11.4998V6.50002H15.6665V2.33335ZM0.666504 11.5C0.666504 10.5795 1.4127 9.83335 2.33317 9.83335H6.49984C7.42031 9.83335 8.16651 10.5795 8.16651 11.5V15.6667C8.16651 16.5872 7.42031 17.3334 6.49984 17.3334H2.33317C1.4127 17.3334 0.666504 16.5872 0.666504 15.6667V11.5ZM6.49984 11.5H2.33317V15.6667H6.49984V11.5ZM9.83317 11.5C9.83317 10.5795 10.5794 9.83335 11.4998 9.83335H15.6665C16.587 9.83335 17.3332 10.5795 17.3332 11.5V15.6667C17.3332 16.5872 16.587 17.3334 15.6665 17.3334H11.4998C10.5794 17.3334 9.83317 16.5872 9.83317 15.6667V11.5ZM15.6665 11.5H11.4998V15.6667H15.6665V11.5Z" fill="white"/>
</svg>
