<svg width="16" height="12" viewBox="0 0 16 12" fill="none" xmlns="http://www.w3.org/2000/svg">
<path fill-rule="evenodd" clip-rule="evenodd" d="M1.33333 0.333313C1.79357 0.333313 2.16667 0.706409 2.16667 1.16665V6.58331C2.16667 6.81344 2.35321 6.99998 2.58333 6.99998H12.6548L10.7441 5.08923C10.4186 4.7638 10.4186 4.23616 10.7441 3.91072C11.0695 3.58529 11.5972 3.58529 11.9226 3.91072L15.2559 7.24406C15.5814 7.56949 15.5814 8.09713 15.2559 8.42257L11.9226 11.7559C11.5972 12.0813 11.0695 12.0813 10.7441 11.7559C10.4186 11.4305 10.4186 10.9028 10.7441 10.5774L12.6548 8.66665H2.58333C1.43275 8.66665 0.5 7.73393 0.5 6.58331V1.16665C0.5 0.706409 0.873096 0.333313 1.33333 0.333313Z" fill="#C93E33"/>
</svg>
