<svg width="16" height="16" viewBox="0 0 16 16" fill="none" xmlns="http://www.w3.org/2000/svg">
<path fill-rule="evenodd" clip-rule="evenodd" d="M0 7.28893C0 3.26338 3.26338 0 7.28893 0C11.3145 0 14.5779 3.26338 14.5779 7.28893C14.5779 9.02533 13.9707 10.6199 12.957 11.872L15.7753 14.6902C16.0749 14.9898 16.0749 15.4756 15.7753 15.7753C15.4756 16.0749 14.9898 16.0749 14.6902 15.7753L11.872 12.957C10.6199 13.9707 9.02533 14.5779 7.28893 14.5779C3.26338 14.5779 0 11.3145 0 7.28893ZM7.28893 1.53451C4.11087 1.53451 1.53451 4.11087 1.53451 7.28893C1.53451 10.467 4.11087 13.0433 7.28893 13.0433C10.467 13.0433 13.0433 10.467 13.0433 7.28893C13.0433 4.11087 10.467 1.53451 7.28893 1.53451Z" fill="#C93E33"/>
</svg>
