<svg width="18" height="16" viewBox="0 0 18 16" fill="none" xmlns="http://www.w3.org/2000/svg">
<path fill-rule="evenodd" clip-rule="evenodd" d="M0.375 1.25C0.375 0.835786 0.710786 0.5 1.125 0.5H2.4375C2.78165 0.5 3.08164 0.734223 3.16511 1.0681L3.58558 2.75H16.5C16.731 2.75 16.949 2.8564 17.0912 3.03844C17.2333 3.22048 17.2836 3.45785 17.2276 3.6819L15.3526 11.1819C15.2691 11.5158 14.9692 11.75 14.625 11.75H4.875C4.53085 11.75 4.23086 11.5158 4.14739 11.1819L1.85192 2H1.125C0.710786 2 0.375 1.66421 0.375 1.25ZM3.96058 4.25L5.46058 10.25H14.0394L15.5394 4.25H3.96058Z" fill="white"/>
<path fill-rule="evenodd" clip-rule="evenodd" d="M4.875 11.75C5.91053 11.75 6.75 12.5895 6.75 13.625C6.75 14.6605 5.91053 15.5 4.875 15.5C3.83947 15.5 3 14.6605 3 13.625C3 12.5895 3.83947 11.75 4.875 11.75ZM4.875 13.25C4.66789 13.25 4.5 13.4179 4.5 13.625C4.5 13.8321 4.66789 14 4.875 14C5.08211 14 5.25 13.8321 5.25 13.625C5.25 13.4179 5.08211 13.25 4.875 13.25Z" fill="white"/>
<path fill-rule="evenodd" clip-rule="evenodd" d="M14.625 11.75C15.6605 11.75 16.5 12.5895 16.5 13.625C16.5 14.6605 15.6605 15.5 14.625 15.5C13.5895 15.5 12.75 14.6605 12.75 13.625C12.75 12.5895 13.5895 11.75 14.625 11.75ZM14.25 13.625C14.25 13.4179 14.4179 13.25 14.625 13.25C14.8321 13.25 15 13.4179 15 13.625C15 13.8321 14.8321 14 14.625 14C14.4179 14 14.25 13.8321 14.25 13.625Z" fill="white"/>
</svg>
