<svg width="16" height="15" viewBox="0 0 16 15" fill="none" xmlns="http://www.w3.org/2000/svg">
<path fill-rule="evenodd" clip-rule="evenodd" d="M8.73956 0.416664C9.13077 0.416664 9.4479 0.733796 9.4479 1.125V3.95833C9.4479 4.34953 9.13077 4.66666 8.73956 4.66666C8.34836 4.66666 8.03123 4.34953 8.03123 3.95833V3.25H0.947896C0.556695 3.25 0.239563 2.93287 0.239563 2.54166C0.239563 2.15046 0.556695 1.83333 0.947896 1.83333H8.03123V1.125C8.03123 0.733796 8.34836 0.416664 8.73956 0.416664ZM10.8646 2.54166C10.8646 2.15046 11.1817 1.83333 11.5729 1.83333H13.6979C14.0891 1.83333 14.4062 2.15046 14.4062 2.54166C14.4062 2.93287 14.0891 3.25 13.6979 3.25H11.5729C11.1817 3.25 10.8646 2.93287 10.8646 2.54166ZM6.61456 5.375C7.00577 5.375 7.3229 5.69213 7.3229 6.08333V6.79166H14.4062C14.7974 6.79166 15.1146 7.1088 15.1146 7.5C15.1146 7.8912 14.7974 8.20833 14.4062 8.20833H7.3229V8.91666C7.3229 9.30787 7.00577 9.625 6.61456 9.625C6.22336 9.625 5.90623 9.30787 5.90623 8.91666V6.08333C5.90623 5.69213 6.22336 5.375 6.61456 5.375ZM0.239563 7.5C0.239563 7.1088 0.556695 6.79166 0.947896 6.79166H3.78123C4.17243 6.79166 4.48956 7.1088 4.48956 7.5C4.48956 7.8912 4.17243 8.20833 3.78123 8.20833H0.947896C0.556695 8.20833 0.239563 7.8912 0.239563 7.5ZM8.73956 10.3333C9.13077 10.3333 9.4479 10.6505 9.4479 11.0417V13.875C9.4479 14.2662 9.13077 14.5833 8.73956 14.5833C8.34836 14.5833 8.03123 14.2662 8.03123 13.875V13.1667H0.947896C0.556695 13.1667 0.239563 12.8495 0.239563 12.4583C0.239563 12.0671 0.556695 11.75 0.947896 11.75H8.03123V11.0417C8.03123 10.6505 8.34836 10.3333 8.73956 10.3333ZM10.8646 12.4583C10.8646 12.0671 11.1817 11.75 11.5729 11.75H13.6979C14.0891 11.75 14.4062 12.0671 14.4062 12.4583C14.4062 12.8495 14.0891 13.1667 13.6979 13.1667H11.5729C11.1817 13.1667 10.8646 12.8495 10.8646 12.4583Z" fill="#C93E33"/>
</svg>
