<svg width="14" height="14" viewBox="0 0 14 14" fill="none" xmlns="http://www.w3.org/2000/svg">
<g opacity="0.5">
<path d="M6.99984 9.33332C8.2885 9.33332 9.33317 8.28865 9.33317 6.99999C9.33317 5.71133 8.2885 4.66666 6.99984 4.66666C5.71117 4.66666 4.6665 5.71133 4.6665 6.99999C4.6665 8.28865 5.71117 9.33332 6.99984 9.33332Z" stroke="#C93E33" stroke-width="1.3" stroke-linecap="round" stroke-linejoin="round"/>
<path d="M9.33318 4.66666V7.58333C9.33318 8.04746 9.51755 8.49258 9.84574 8.82076C10.1739 9.14895 10.619 9.33333 11.0832 9.33333C11.5473 9.33333 11.9924 9.14895 12.3206 8.82076C12.6488 8.49258 12.8332 8.04746 12.8332 7.58333V6.99999C12.8331 5.68343 12.3876 4.40561 11.5693 3.3743C10.7509 2.343 9.60767 1.61888 8.32555 1.31967C7.04343 1.02046 5.6978 1.16377 4.50746 1.72629C3.31712 2.28881 2.35207 3.23747 1.76924 4.418C1.18641 5.59853 1.02007 6.94151 1.29727 8.22856C1.57447 9.51561 2.27891 10.671 3.29604 11.507C4.31318 12.3429 5.58318 12.8102 6.89955 12.8328C8.21592 12.8555 9.50124 12.4321 10.5465 11.6317" stroke="#C93E33" stroke-width="1.3" stroke-linecap="round" stroke-linejoin="round"/>
</g>
</svg>
