<svg width="14" height="11" viewBox="0 0 14 11" fill="none" xmlns="http://www.w3.org/2000/svg">
<path fill-rule="evenodd" clip-rule="evenodd" d="M0.333374 0.833354C0.333374 0.465164 0.631851 0.166687 1.00004 0.166687H8.66671C9.0349 0.166687 9.33337 0.465164 9.33337 0.833354C9.33337 1.20154 9.0349 1.50002 8.66671 1.50002H1.00004C0.631851 1.50002 0.333374 1.20154 0.333374 0.833354ZM11 0.166687C11.3682 0.166687 11.6667 0.465164 11.6667 0.833354V7.69785L12.4939 6.73283C12.7335 6.45328 13.1544 6.4209 13.4339 6.66052C13.7135 6.90013 13.7458 7.321 13.5062 7.60055L11.5062 9.93388C11.3247 10.1457 11.0304 10.2221 10.7687 10.1253C10.5071 10.0285 10.3334 9.779 10.3334 9.50002V0.833354C10.3334 0.465164 10.6319 0.166687 11 0.166687ZM0.333374 5.16669C0.333374 4.7985 0.631851 4.50002 1.00004 4.50002H8.66671C9.0349 4.50002 9.33337 4.7985 9.33337 5.16669C9.33337 5.53488 9.0349 5.83335 8.66671 5.83335H1.00004C0.631851 5.83335 0.333374 5.53488 0.333374 5.16669ZM0.333374 9.50002C0.333374 9.13183 0.631851 8.83335 1.00004 8.83335H8.66671C9.0349 8.83335 9.33337 9.13183 9.33337 9.50002C9.33337 9.86821 9.0349 10.1667 8.66671 10.1667H1.00004C0.631851 10.1667 0.333374 9.86821 0.333374 9.50002Z" fill="black"/>
</svg>
