<svg width="11" height="10" viewBox="0 0 11 10" fill="none" xmlns="http://www.w3.org/2000/svg">
<path d="M1 3.99998C0.44772 3.99998 0 4.44768 0 4.99998C0 5.55228 0.44772 5.99998 1 5.99998C1.55228 5.99998 2 5.55228 2 4.99998C2 4.44768 1.55228 3.99998 1 3.99998Z" fill="#C93E33"/>
<path d="M0 8.49998C0 7.94768 0.44772 7.49998 1 7.49998C1.55228 7.49998 2 7.94768 2 8.49998C2 9.05228 1.55228 9.49998 1 9.49998C0.44772 9.49998 0 9.05228 0 8.49998Z" fill="#C93E33"/>
<path d="M4 4.49998C3.72386 4.49998 3.5 4.72384 3.5 4.99998C3.5 5.27612 3.72386 5.49998 4 5.49998H10C10.2761 5.49998 10.5 5.27612 10.5 4.99998C10.5 4.72384 10.2761 4.49998 10 4.49998H4Z" fill="#C93E33"/>
<path d="M3.5 8.49998C3.5 8.22384 3.72386 7.99998 4 7.99998H10C10.2761 7.99998 10.5 8.22384 10.5 8.49998C10.5 8.77612 10.2761 8.99998 10 8.99998H4C3.72386 8.99998 3.5 8.77612 3.5 8.49998Z" fill="#C93E33"/>
<path d="M4 0.999983C3.72386 0.999983 3.5 1.22384 3.5 1.49998C3.5 1.77612 3.72386 1.99998 4 1.99998H10C10.2761 1.99998 10.5 1.77612 10.5 1.49998C10.5 1.22384 10.2761 0.999983 10 0.999983H4Z" fill="#C93E33"/>
<path d="M1 0.571411C0.44772 0.571411 0 1.01911 0 1.57141C0 2.12371 0.44772 2.57141 1 2.57141C1.55228 2.57141 2 2.12371 2 1.57141C2 1.01911 1.55228 0.571411 1 0.571411Z" fill="#C93E33"/>
</svg>
